<?xml version="1.0" encoding="iso-8859-1"?>
<!-- Uploaded to: SVG Repo, www.svgrepo.com, Generator: SVG Repo Mixer Tools -->
<svg version="1.1" id="Layer_1" xmlns="http://www.w3.org/2000/svg" xmlns:xlink="http://www.w3.org/1999/xlink" 
	 viewBox="0 0 512.008 512.008" xml:space="preserve">
<g>
	<path style="fill:#5DACD8;" d="M265.774,338.698l66.074,126.572l104.113-28.057l-14.551-84.05
		c-5.342-30.765-21.946-55.559-43.89-65.531c-2.493-1.136-4.918-2.459-7.259-3.952c-23.235-14.856-38.413-46.893-38.413-82.575"/>
	<path style="fill:#5DACD8;" d="M180.185,201.106l35.551,103.42l-35.551,160.743l-32.952-8.873l-71.188-19.185l14.572-84.051
		c5.333-30.755,21.931-55.554,43.875-65.525c2.514-1.135,4.931-2.465,7.274-3.966c1.879-1.196,3.698-2.514,5.468-3.93
		C167.346,263.605,180.185,233.887,180.185,201.106z"/>
</g>
<path style="fill:#E6E6E6;" d="M180.181,274.654V156.21c0-27.491,5.172-54.473,15.009-79.658c1.238-3.172,2.56-6.326,3.935-9.429
	c9.616-21.572,22.743-41.635,39.006-59.29c5.258-5.698,12.533-8.293,19.639-7.767c5.936,0.423,11.736,3.019,16.111,7.767
	c16.145,17.502,29.187,37.361,38.752,58.73c12.567,27.949,19.215,58.476,19.215,89.647v48.164v70.28v236.108h-75.843H180.18V274.654
	H180.181z"/>
<polygon style="fill:#E88158;" points="180.185,400.696 180.185,465.269 147.233,456.396 76.045,437.211 82.379,400.696 "/>
<path style="fill:#4C9CBF;" d="M180.185,201.106l40.433,132.71l-40.433,131.453l-32.952-8.873V279.739
	C167.346,263.605,180.185,233.887,180.185,201.106z"/>
<polygon style="fill:#D37250;" points="215.736,400.696 180.185,465.269 147.233,456.396 147.233,400.696 "/>
<path style="fill:#CCCCCC;" d="M238.131,7.838c4.821-5.223,11.326-7.835,17.843-7.835c-3.027,0.012-6.066,2.624-8.311,7.835
	c-7.591,17.647-13.718,37.711-18.197,59.289c-0.647,3.1-1.269,6.249-1.843,9.422c-4.589,25.19-7.005,52.174-7.005,79.658v354.56
	h-40.433v-354.56c0-27.484,5.175-54.468,15.011-79.658c1.233-3.173,2.551-6.322,3.93-9.422
	C208.743,45.55,221.862,25.486,238.131,7.838z"/>
<path style="fill:#5DACD8;" d="M287.126,135.983l-6.473-6.472c-13.588-13.59-35.705-13.592-49.296,0l-6.473,6.472l-12.944-12.944
	l6.472-6.472c20.733-20.729,54.458-20.728,75.186,0l6.472,6.472L287.126,135.983z"/>
<rect x="208.417" y="372.036" style="fill:#CCCCCC;" width="47.597" height="139.972"/>
<g>
	<rect x="180.188" y="465.265" style="fill:#E88158;" width="151.663" height="45.498"/>
	<path style="fill:#E88158;" d="M312.638,66.565l-1.22,0.561H199.126c9.617-21.577,22.737-41.641,39.005-59.289
		c0.305-0.33,0.61-0.647,0.928-0.952c4.711-4.589,10.813-6.883,16.915-6.883c0.598,0,1.196,0.012,1.794,0.061
		c5.944,0.427,11.741,3.014,16.11,7.774C290.024,25.339,303.07,45.196,312.638,66.565z"/>
</g>
<g>
	<rect x="180.188" y="465.265" style="fill:#D37250;" width="73.385" height="45.498"/>
	<path style="fill:#D37250;" d="M255.973,0.003c-3.027,0.012-6.066,2.624-8.311,7.835c-7.591,17.647-13.718,37.711-18.197,59.289
		h-30.34c9.617-21.577,22.737-41.641,39.005-59.289c0.305-0.33,0.61-0.647,0.928-0.952C243.769,2.297,249.871,0.003,255.973,0.003z"
		/>
</g>
<polygon style="fill:#E88158;" points="429.629,400.647 435.963,437.211 331.848,465.269 331.848,400.696 429.348,400.696 "/>
<path style="fill:#5DACD8;" d="M256.014,372.034L256.014,372.034c-10.785,0-19.527,8.742-19.527,19.527v119.201h39.054V391.561
	C275.541,380.776,266.799,372.034,256.014,372.034z"/>
</svg>