<?xml version="1.0" encoding="iso-8859-1"?>
<!-- Uploaded to: SVG Repo, www.svgrepo.com, Generator: SVG Repo Mixer Tools -->
<svg height="800px" width="800px" version="1.1" id="Layer_1" xmlns="http://www.w3.org/2000/svg" xmlns:xlink="http://www.w3.org/1999/xlink" 
	 viewBox="0 0 511.999 511.999" xml:space="preserve">
<path style="fill:#CCD8E5;" d="M503.665,66.8v316.343c0,17.909-14.509,32.429-32.417,32.429H40.754
	c-17.909,0-32.418-14.52-32.418-32.429V66.8c0-17.909,14.509-32.429,32.418-32.429h430.493
	C489.155,34.371,503.665,48.891,503.665,66.8z"/>
<path style="fill:#DFEAF4;" d="M503.665,66.8v316.343c0,17.909-14.509,32.429-32.417,32.429H183.344l23.752-57.925L339.655,34.371
	h131.592C489.155,34.371,503.665,48.891,503.665,66.8z"/>
<path style="fill:#B8E9F2;" d="M503.665,66.8v290.847H8.337V66.8c0-17.909,14.509-32.429,32.418-32.429h430.493
	C489.155,34.371,503.665,48.891,503.665,66.8z"/>
<path style="fill:#D4F7FC;" d="M503.665,66.8v290.847H207.097L339.655,34.371h131.592C489.155,34.371,503.665,48.891,503.665,66.8z"
	/>
<polygon style="fill:#CCD8E5;" points="343.454,480.173 168.547,480.173 181.034,450.955 196.165,415.571 315.836,415.571 
	330.967,450.955 "/>
<polygon style="fill:#BAC6D1;" points="330.967,450.955 181.034,450.955 196.165,415.571 315.836,415.571 "/>
<path style="fill:#F75757;" d="M307.272,126.891H138.811c-13.502,0-24.449,10.946-24.449,24.449v116.794
	c0,13.502,10.946,24.449,24.449,24.449h168.461c13.502,0,24.449-10.946,24.449-24.449V151.34
	C331.72,137.837,320.774,126.891,307.272,126.891z"/>
<polygon style="fill:#DB4949;" points="397.64,130.248 331.72,166.086 331.72,253.386 397.64,289.225 "/>
<polygon style="fill:#B8E9F2;" points="271.907,209.737 199.701,168.048 199.701,251.424 "/>
<path d="M401.898,121.81c-2.526-1.502-5.656-1.561-8.239-0.159l-53.608,29.145v-0.733c0-18.075-14.705-32.781-32.78-32.781H138.811
	c-18.075,0-32.781,14.706-32.781,32.781v116.794c0,18.075,14.706,32.781,32.781,32.781h120.685c4.602,0,8.332-3.731,8.332-8.332
	s-3.731-8.332-8.332-8.332H138.811c-8.886,0-16.117-7.23-16.117-16.117V150.062c0-8.886,7.23-16.117,16.117-16.117h168.461
	c8.886,0,16.115,7.23,16.115,16.117v14.747v87.3v14.747c0,8.886-7.229,16.117-16.115,16.117h-20.003
	c-4.602,0-8.332,3.731-8.332,8.332c0,4.602,3.731,8.332,8.332,8.332h20.003c18.075,0,32.78-14.706,32.78-32.781v-0.733
	l53.608,29.145c1.243,0.675,2.612,1.012,3.981,1.012c1.474,0,2.947-0.391,4.258-1.17c2.525-1.502,4.074-4.224,4.074-7.162V128.97
	C405.972,126.033,404.424,123.312,401.898,121.81z M389.308,273.935l-49.256-26.778v-77.392l49.256-26.778V273.935z"/>
<path d="M276.072,201.245l-72.205-41.687c-2.577-1.489-5.755-1.489-8.332,0c-2.577,1.489-4.166,4.238-4.166,7.216v83.376
	c0,2.977,1.589,5.727,4.166,7.216c1.289,0.744,2.727,1.117,4.166,1.117s2.877-0.372,4.166-1.117l72.205-41.687
	c2.577-1.489,4.166-4.238,4.166-7.216S278.651,202.733,276.072,201.245z M208.033,235.716v-54.512l47.209,27.256L208.033,235.716z"
	/>
<path d="M471.246,24.766H40.754C18.283,24.766,0,43.049,0,65.52v59.227c0,4.602,3.731,8.332,8.332,8.332s8.332-3.731,8.332-8.332
	V65.52c0-13.284,10.807-24.09,24.09-24.09h430.492c13.284,0,24.09,10.807,24.09,24.09v284.411h-52.21
	c-4.602,0-8.332,3.731-8.332,8.332s3.731,8.332,8.332,8.332h52.21v15.273c0,13.284-10.807,24.09-24.09,24.09h-155.41H196.164H40.754
	c-13.284,0-24.09-10.807-24.09-24.09v-15.273h398.688c4.602,0,8.332-3.731,8.332-8.332s-3.731-8.332-8.332-8.332H16.664V152.522
	c0-4.602-3.731-8.332-8.332-8.332S0,147.92,0,152.522v229.348c0,22.472,18.283,40.754,40.754,40.754H183.54l-20.494,47.945h-40.034
	c-4.602,0-8.332,3.731-8.332,8.332s3.731,8.332,8.332,8.332h265.975c4.602,0,8.332-3.731,8.332-8.332s-3.731-8.332-8.332-8.332
	h-40.034l-20.494-47.945h142.786c22.472,0,40.754-18.282,40.754-40.754V65.52C512,43.049,493.717,24.766,471.246,24.766z
	 M330.83,470.568H181.17l14.238-33.31h121.185L330.83,470.568z"/>
<path d="M253.972,376.221c-3.517,0.879-6.116,4.048-6.291,7.67c-0.364,7.534,9.106,11.629,14.33,6.172
	c2.663-2.782,3.078-7.177,0.913-10.385C261.01,376.772,257.341,375.379,253.972,376.221z"/>
</svg>